<svg xmlns="http://www.w3.org/2000/svg" viewBox="0 0 1200 675" role="img" aria-labelledby="t d">
<title id="t">Kedai Matematik, Bayuraya</title><desc id="d">Kedai cerah dengan kaunter, rak pengambilan, beg biru kecil berpelekat roket, beg merah jambu besar bereben putih dan pekerja Kedai Matematik.</desc>
<defs><linearGradient id="wall" x2="0" y2="1"><stop stop-color="#fff9e9"/><stop offset="1" stop-color="#e9f3df"/></linearGradient><linearGradient id="counter" x2="0" y2="1"><stop stop-color="#f8bd48"/><stop offset="1" stop-color="#dd8f32"/></linearGradient><filter id="s"><feDropShadow dy="7" stdDeviation="6" flood-color="#0f2d4a" flood-opacity=".17"/></filter></defs>
<path fill="url(#wall)" d="M0 0h1200v675H0z"/><path fill="#d9c794" d="M0 540h1200v135H0z"/><path stroke="#c1aa72" stroke-width="4" d="M0 585h1200m-1200 48h1200" opacity=".55"/>
<g filter="url(#s)"><rect x="342" y="35" width="520" height="105" rx="28" fill="#6a2fb8" stroke="#0f2d4a" stroke-width="7"/><text x="602" y="101" text-anchor="middle" font-family="Arial" font-size="53" font-weight="900" fill="#fff">KEDAI MATEMATIK</text><g fill="#f7b239"><path d="M395 67h32v12h-32zm10-10v32h12V57z"/><path d="m783 60 32 32m0-32-32 32" stroke="#f7b239" stroke-width="12"/></g></g>
<g filter="url(#s)"><rect x="30" y="170" width="225" height="355" rx="20" fill="#0f526f"/><path fill="#fff8e8" d="M51 203h183v78H51zm0 101h183v78H51zm0 101h183v78H51z"/><g fill="#78a872"><rect x="68" y="221" width="42" height="45" rx="6"/><rect x="128" y="217" width="30" height="49" rx="6"/><rect x="178" y="226" width="38" height="40" rx="6"/></g><g fill="#d95a94"><circle cx="88" cy="343" r="23"/><rect x="127" y="323" width="38" height="42" rx="8"/><path d="m187 323 28 42h-56z"/></g><g fill="#f7b239"><rect x="68" y="423" width="48" height="43" rx="5"/><circle cx="148" cy="445" r="22"/><rect x="180" y="420" width="35" height="48" rx="7"/></g></g>
<g filter="url(#s)"><rect x="295" y="170" width="205" height="150" rx="19" fill="#e5d8ad" stroke="#0b6e7b" stroke-width="9"/><rect x="316" y="192" width="163" height="106" fill="#fffdf6"/><circle cx="350" cy="228" r="18" fill="#f7b239"/><path fill="#0b6e7b" d="M382 211h76v12h-76zm0 25h62v10h-62zm-48 36h124v10H334z"/></g>
<g filter="url(#s)"><path fill="none" stroke="#0f526f" stroke-width="13" d="M309 484h103l-14 88h-75z"/><path fill="#78a872" d="M319 505h84l-9 57h-65z"/><path d="M332 484q8-45 28-45 21 0 29 45" fill="none" stroke="#f7b239" stroke-width="10"/></g>
<g filter="url(#s)"><rect x="487" y="188" width="387" height="58" rx="13" fill="#0b6e7b"/><text x="680" y="226" text-anchor="middle" font-family="Arial" font-size="25" font-weight="800" fill="#fff">RAK PENGAMBILAN</text><rect x="500" y="253" width="360" height="205" rx="15" fill="#f8ecd7" stroke="#0f526f" stroke-width="8"/><path stroke="#0f526f" stroke-width="8" d="M500 355h360"/></g>
<g filter="url(#s)"><rect x="528" y="284" width="76" height="63" rx="10" fill="#fff" stroke="#0f2d4a" stroke-width="5"/><path fill="#0b6e7b" d="M542 297h48v8h-48zm0 16h37v6h-37zm0 14h44v6h-44z"/><text x="566" y="343" text-anchor="middle" font-family="Arial" font-size="10" fill="#0f2d4a">RESIT</text></g>
<g filter="url(#s)"><path fill="#318bc5" stroke="#0f2d4a" stroke-width="6" d="M625 309h105l12 105H614z"/><path d="M640 310q4-42 36-42 33 0 38 42" fill="none" stroke="#0f2d4a" stroke-width="9"/><path fill="#fff" stroke="#f7b239" stroke-width="4" d="m661 346 18-17 3 15 16 3-17 11-2 17-10-13-17 5 9-15z"/><rect x="685" y="382" width="51" height="25" rx="4" fill="#fff8e8"/><text x="710" y="399" text-anchor="middle" font-family="Arial" font-size="12" font-weight="800" fill="#d95a94">SOFIA</text></g>
<g filter="url(#s)"><path fill="#df679d" stroke="#0f2d4a" stroke-width="6" d="M732 270h120l18 142H714z"/><path d="M739 271q5-61 55-61 48 0 52 61" fill="none" stroke="#0f2d4a" stroke-width="11"/><path d="M742 302h102m-51-30v135" stroke="#fff" stroke-width="12"/><path d="M793 301q-29-24-42-3 14 22 42 3 29-24 42-3-14 22-42 3z" fill="#fff" stroke="#0f2d4a" stroke-width="4"/><rect x="719" y="375" width="62" height="26" rx="4" fill="#fff8e8"/><text x="750" y="393" text-anchor="middle" font-family="Arial" font-size="12" font-weight="800" fill="#0b6e7b">AMMAR</text></g>
<g filter="url(#s)"><path fill="url(#counter)" stroke="#9c602b" stroke-width="8" d="M455 492h477l32 137H423z"/><path fill="#6a2fb8" d="M452 526h486l13 38H439z"/><rect x="603" y="578" width="174" height="33" rx="9" fill="#fff8e8"/><text x="690" y="600" text-anchor="middle" font-family="Arial" font-size="16" font-weight="800" fill="#6a2fb8">KEDAI MATEMATIK</text></g>
<g filter="url(#s)" transform="translate(905 155) scale(.78)"><path fill="#3a2530" d="M22 70q-7-55 35-62 43-25 84 8 30 5 22 56-24-24-44-27-44 32-97 25z"/><circle cx="90" cy="82" r="52" fill="#e4a276"/><path fill="#f7b239" stroke="#0f2d4a" stroke-width="5" d="M35 42q55-25 110 0l-8 25Q90 50 43 67z"/><path fill="#6a2fb8" d="M40 60q49-16 100 0l-4 15q-46-12-92 0z"/><circle cx="71" cy="84" r="7" fill="#0f2d4a"/><circle cx="109" cy="84" r="7" fill="#0f2d4a"/><path d="M72 108q18 15 36 0" fill="none" stroke="#8f493c" stroke-width="5"/><path fill="#f7b239" d="M37 137q53-27 106 0l15 115H22z"/><path fill="#6a2fb8" d="M52 129h77l20 129H31z"/><rect x="56" y="151" width="69" height="31" rx="4" fill="#fff8e8"/><text x="90" y="165" text-anchor="middle" font-family="Arial" font-size="9" font-weight="700" fill="#6a2fb8">KEDAI</text><text x="90" y="176" text-anchor="middle" font-family="Arial" font-size="9" font-weight="700" fill="#6a2fb8">MATEMATIK</text></g>
</svg>
